<?xml version="1.0" encoding="UTF-8" standalone="no"?>
<svg
   xmlns:dc="http://purl.org/dc/elements/1.1/"
   xmlns:cc="http://creativecommons.org/ns#"
   xmlns:rdf="http://www.w3.org/1999/02/22-rdf-syntax-ns#"
   xmlns:svg="http://www.w3.org/2000/svg"
   xmlns="http://www.w3.org/2000/svg"
   id="svg4234"
   version="1.1"
   width="161.32474"
   height="24.578125"
   viewBox="0 0 161.32474 24.578125">
  <metadata
     id="metadata4240">
    <rdf:RDF>
      <cc:Work
         rdf:about="">
        <dc:format>image/svg+xml</dc:format>
        <dc:type
           rdf:resource="http://purl.org/dc/dcmitype/StillImage" />
        <dc:title></dc:title>
      </cc:Work>
    </rdf:RDF>
  </metadata>
  <defs
     id="defs4238" />
  <g
     id="text4244"
     style="font-style:normal;font-variant:normal;font-weight:bold;font-stretch:normal;font-size:18px;line-height:125%;font-family:'Helvetica Neue';-inkscape-font-specification:'Helvetica Neue Bold';letter-spacing:0px;word-spacing:0px;fill:#ffffff;fill-opacity:1;stroke:none;stroke-width:1px;stroke-linecap:butt;stroke-linejoin:miter;stroke-opacity:1">
    <path
       id="path4209"
       style="letter-spacing:-0.15000001px;fill:#ffffff;fill-opacity:1"
       d="m 32.923515,4.2098057 0,12.8520003 2.646,0 0,-9.0180003 0.036,0 3.15,9.0180003 2.178,0 3.15,-9.1080003 0.036,0 0,9.1080003 2.646,0 0,-12.8520003 -3.978,0 -2.844,8.8380003 -0.036,0 -3.006,-8.8380003 -3.978,0 z" />
    <path
       id="path4211"
       style="letter-spacing:-0.15000001px;fill:#ffffff;fill-opacity:1"
       d="m 52.326015,12.093806 1.674,-4.7160003 0.036,0 1.62,4.7160003 -3.33,0 z m 0.27,-7.8840003 -4.86,12.8520003 2.844,0 1.008,-2.862 4.806,0 0.972,2.862 2.934,0 -4.806,-12.8520003 -2.898,0 z" />
    <path
       id="path4213"
       style="letter-spacing:-0.15000001px;fill:#ffffff;fill-opacity:1"
       d="m 63.957859,10.689806 0,-2.7720003 -2.826,0 0,2.7720003 2.826,0 z m -2.826,3.6 0,2.772 2.826,0 0,-2.772 -2.826,0 z" />
    <path
       id="path4215"
       style="letter-spacing:-0.15000001px;fill:#ffffff;fill-opacity:1"
       d="m 74.686045,8.5298057 2.736,0 q -0.126,-1.116 -0.612,-1.98 -0.486,-0.864 -1.242,-1.44 -0.738,-0.594 -1.692,-0.9 -0.936,-0.306 -1.998,-0.306 -1.476,0 -2.664,0.522 -1.17,0.522 -1.98,1.44 -0.81,0.918 -1.242,2.16 -0.432,1.224 -0.432,2.6640003 0,1.404 0.432,2.628 0.432,1.206 1.242,2.106 0.81,0.9 1.98,1.422 1.188,0.504 2.664,0.504 1.188,0 2.178,-0.36 0.99,-0.36 1.728,-1.044 0.738,-0.684 1.188,-1.656 0.45,-0.972 0.558,-2.178 l -2.736,0 q -0.162,1.296 -0.9,2.088 -0.72,0.792 -2.016,0.792 -0.954,0 -1.62,-0.36 -0.666,-0.378 -1.08,-0.99 -0.414,-0.612 -0.612,-1.368 -0.18,-0.774 -0.18,-1.584 0,-0.8460003 0.18,-1.6380003 0.198,-0.792 0.612,-1.404 0.414,-0.63 1.08,-0.99 0.666,-0.378 1.62,-0.378 0.522,0 0.99,0.18 0.486,0.162 0.864,0.468 0.378,0.306 0.63,0.72 0.252,0.396 0.324,0.882 z" />
    <path
       id="path4217"
       style="letter-spacing:-0.15000001px;fill:#ffffff;fill-opacity:1"
       d="m 85.268266,17.061806 4.266,-12.8520003 -2.916,0 -2.898,9.0360003 -0.036,0 -2.862,-9.0360003 -2.898,0 4.158,12.8520003 3.186,0 z" />
    <path
       id="path4219"
       style="letter-spacing:-0.15000001px;fill:#ffffff;fill-opacity:1"
       d="m 92.335983,10.689806 0,-2.7720003 -2.826,0 0,2.7720003 2.826,0 z m -2.826,3.6 0,2.772 2.826,0 0,-2.772 -2.826,0 z" />
    <path
       id="path4221"
       style="letter-spacing:-0.15000001px;fill:#ffffff;fill-opacity:1"
       d="m 100.49017,11.409806 -4.158001,0 q 0.018,-0.27 0.108,-0.612 0.108,-0.342 0.342,-0.648 0.252,-0.3060003 0.648,-0.5040003 0.414,-0.216 1.026,-0.216 0.936,0 1.386,0.504 0.468001,0.5040003 0.648001,1.4760003 z m -4.158001,1.62 6.714001,0 q 0.072,-1.08 -0.18,-2.07 -0.252,-0.9900003 -0.828,-1.7640003 -0.558,-0.774 -1.44,-1.224 -0.882001,-0.468 -2.070001,-0.468 -1.062,0 -1.944,0.378 -0.864,0.378 -1.494,1.044 -0.63,0.648 -0.972,1.5480003 -0.342,0.9 -0.342,1.944 0,1.08 0.324,1.98 0.342,0.9 0.954,1.548 0.612,0.648 1.494,1.008 0.882,0.342 1.98,0.342 1.584001,0 2.700001,-0.72 1.116,-0.72 1.656,-2.394 l -2.25,0 q -0.126,0.432 -0.684001,0.828 -0.558,0.378 -1.332,0.378 -1.08,0 -1.656,-0.558 -0.576,-0.558 -0.63,-1.8 z" />
    <path
       id="path4223"
       style="letter-spacing:-0.15000001px;fill:#ffffff;fill-opacity:1"
       d="m 104.41211,7.7558057 0,9.3060003 2.556,0 0,-4.878 q 0,-1.422 0.468,-2.034 0.468,-0.6300003 1.512,-0.6300003 0.918,0 1.278,0.5760003 0.36,0.558 0.36,1.71 l 0,5.256 2.556,0 0,-5.724 q 0,-0.864 -0.162,-1.5660003 -0.144,-0.72 -0.522,-1.206 -0.378,-0.504 -1.044,-0.774 -0.648,-0.288 -1.674,-0.288 -0.81,0 -1.584,0.378 -0.774,0.36 -1.26,1.17 l -0.054,0 0,-1.296 -2.43,0 z" />
    <path
       id="path4225"
       style="letter-spacing:-0.15000001px;fill:#ffffff;fill-opacity:1"
       d="m 117.90161,10.689806 0,-2.7720003 -2.826,0 0,2.7720003 2.826,0 z m -2.826,3.6 0,2.772 2.826,0 0,-2.772 -2.826,0 z" />
    <path
       id="path4227"
       style="letter-spacing:-0.15000001px;fill:#ffffff;fill-opacity:1"
       d="m 126.3978,12.381806 q 0,0.576 -0.108,1.116 -0.108,0.54 -0.36,0.972 -0.252,0.414 -0.684,0.666 -0.414,0.252 -1.044,0.252 -0.594,0 -1.026,-0.252 -0.414,-0.27 -0.702,-0.684 -0.27,-0.432 -0.396,-0.972 -0.126,-0.54 -0.126,-1.08 0,-0.576 0.108,-1.098 0.126,-0.54 0.378,-0.954 0.27,-0.4140003 0.702,-0.6660003 0.432,-0.252 1.062,-0.252 0.63,0 1.044,0.252 0.414,0.252 0.666,0.6660003 0.27,0.396 0.378,0.936 0.108,0.522 0.108,1.098 z m 0.036,3.492 0,1.188 2.43,0 0,-12.8520003 -2.556,0 0,4.68 -0.036,0 q -0.432,-0.684 -1.188,-1.026 -0.738,-0.36 -1.566,-0.36 -1.026,0 -1.8,0.414 -0.774,0.396 -1.296,1.062 -0.504,0.666 -0.774,1.5480003 -0.252,0.864 -0.252,1.8 0,0.972 0.252,1.872 0.27,0.9 0.774,1.602 0.522,0.684 1.314,1.098 0.792,0.396 1.836,0.396 0.918,0 1.638,-0.324 0.738,-0.342 1.188,-1.098 l 0.036,0 z" />
    <path
       id="path4229"
       style="letter-spacing:-0.15000001px;fill:#ffffff;fill-opacity:1"
       d="m 132.87855,12.417806 q 0,-0.558 0.108,-1.098 0.108,-0.54 0.36,-0.954 0.27,-0.4140003 0.702,-0.6660003 0.432,-0.27 1.08,-0.27 0.648,0 1.08,0.27 0.45,0.252 0.702,0.6660003 0.27,0.414 0.378,0.954 0.108,0.54 0.108,1.098 0,0.558 -0.108,1.098 -0.108,0.522 -0.378,0.954 -0.252,0.414 -0.702,0.666 -0.432,0.252 -1.08,0.252 -0.648,0 -1.08,-0.252 -0.432,-0.252 -0.702,-0.666 -0.252,-0.432 -0.36,-0.954 -0.108,-0.54 -0.108,-1.098 z m -2.556,0 q 0,1.116 0.342,2.016 0.342,0.9 0.972,1.548 0.63,0.63 1.512,0.972 0.882,0.342 1.98,0.342 1.098,0 1.98,-0.342 0.9,-0.342 1.53,-0.972 0.63,-0.648 0.972,-1.548 0.342,-0.9 0.342,-2.016 0,-1.116 -0.342,-2.016 -0.342,-0.9180003 -0.972,-1.5480003 -0.63,-0.648 -1.53,-0.99 -0.882,-0.36 -1.98,-0.36 -1.098,0 -1.98,0.36 -0.882,0.342 -1.512,0.99 -0.63,0.63 -0.972,1.5480003 -0.342,0.9 -0.342,2.016 z" />
    <path
       id="path4231"
       style="letter-spacing:-0.15000001px;fill:#ffffff;fill-opacity:1"
       d="m 144.38129,10.689806 0,-2.7720003 -2.826,0 0,2.7720003 2.826,0 z m -2.826,3.6 0,2.772 2.826,0 0,-2.772 -2.826,0 z" />
    <path
       id="path4233"
       style="letter-spacing:-0.15000001px;fill:#ffffff;fill-opacity:1"
       d="m 146.27148,7.7558057 0,9.3060003 2.556,0 0,-4.194 q 0,-0.63 0.126,-1.17 0.126,-0.54 0.414,-0.936 0.306,-0.414 0.792,-0.648 0.486,-0.2340003 1.188,-0.2340003 0.234,0 0.486,0.036 0.252,0.018 0.432,0.054 l 0,-2.376 q -0.306,-0.09 -0.558,-0.09 -0.486,0 -0.936,0.144 -0.45,0.144 -0.846,0.414 -0.396,0.252 -0.702,0.63 -0.306,0.36 -0.486,0.792 l -0.036,0 0,-1.728 -2.43,0 z" />
    <path
       id="path4235"
       style="letter-spacing:-0.15000001px;fill:#ffffff;fill-opacity:1"
       d="m 155.13274,14.037806 -2.43,0 q 0.036,0.936 0.414,1.566 0.396,0.612 0.99,0.99 0.612,0.378 1.386,0.54 0.774,0.162 1.584,0.162 0.792,0 1.548,-0.162 0.774,-0.144 1.368,-0.522 0.594,-0.378 0.954,-0.99 0.378,-0.63 0.378,-1.548 0,-0.648 -0.252,-1.08 -0.252,-0.45 -0.666,-0.738 -0.414,-0.306 -0.954,-0.486 -0.522,-0.18 -1.08,-0.306 -0.54,-0.126 -1.062,-0.234 -0.522,-0.108 -0.936,-0.234 -0.396,-0.144 -0.648,-0.36 -0.252,-0.216 -0.252,-0.558 0,-0.2880003 0.144,-0.4500003 0.144,-0.18 0.342,-0.27 0.216,-0.09 0.468,-0.108 0.252,-0.036 0.468,-0.036 0.684,0 1.188,0.27 0.504,0.252 0.558,0.9900003 l 2.43,0 q -0.072,-0.8640003 -0.45,-1.4220003 -0.36,-0.576 -0.918,-0.918 -0.558,-0.342 -1.278,-0.486 -0.702,-0.144 -1.458,-0.144 -0.756,0 -1.476,0.144 -0.72,0.126 -1.296,0.468 -0.576,0.324 -0.936,0.9 -0.342,0.576 -0.342,1.4760003 0,0.612 0.252,1.044 0.252,0.414 0.666,0.702 0.414,0.27 0.936,0.45 0.54,0.162 1.098,0.288 1.368,0.288 2.124,0.576 0.774,0.288 0.774,0.864 0,0.342 -0.162,0.576 -0.162,0.216 -0.414,0.36 -0.234,0.126 -0.54,0.198 -0.288,0.054 -0.558,0.054 -0.378,0 -0.738,-0.09 -0.342,-0.09 -0.612,-0.27 -0.27,-0.198 -0.45,-0.486 -0.162,-0.306 -0.162,-0.72 z" />
  </g>
  <g
     id="g4282"
     style="display:inline;fill:#aee142;fill-opacity:1"
     transform="translate(-8.0214844,-4.671875)">
    <path
       style="opacity:1;fill:#aee142;fill-opacity:1;fill-rule:nonzero;stroke:none;stroke-width:83;stroke-linecap:round;stroke-linejoin:miter;stroke-miterlimit:4;stroke-dasharray:none;stroke-dashoffset:0;stroke-opacity:1"
       d="m 19.021484,4.671875 a 11,11 0 0 0 -10.9999996,11 11,11 0 0 0 3.4843746,8.021484 l 2.564453,-2.738281 a 7.25,7.25 0 0 1 -2.298828,-5.283203 7.25,7.25 0 0 1 7.25,-7.25 7.25,7.25 0 0 1 7.25,7.25 7.25,7.25 0 0 1 -3.46875,6.179687 l 0,-3.029296 -8.078125,5.21289 8.078125,5.214844 0,-3.263672 a 11,11 0 0 0 7.21875,-10.314453 11,11 0 0 0 -11,-11 z"
       id="circle4284" />
  </g>
</svg>
